<svg xmlns="http://www.w3.org/2000/svg" viewBox="0 0 20 20"><path fill="rgb(196,205,213)" d="M2 0H1C.448 0 0 .448 0 1v1c0 .552.448 1 1 1s1-.448 1-1c.552 0 1-.448 1-1s-.448-1-1-1zm4 2h2c.552 0 1-.448 1-1s-.448-1-1-1H6c-.552 0-1 .448-1 1s.448 1 1 1zm8-2h-2c-.552 0-1 .448-1 1s.448 1 1 1h2c.552 0 1-.448 1-1s-.448-1-1-1zM8 18H6c-.552 0-1 .448-1 1s.448 1 1 1h2c.552 0 1-.448 1-1s-.448-1-1-1zm6 0h-2c-.552 0-1 .448-1 1s.448 1 1 1h2c.552 0 1-.448 1-1s-.448-1-1-1zm5-18h-1c-.552 0-1 .448-1 1s.448 1 1 1c0 .552.448 1 1 1s1-.448 1-1V1c0-.552-.448-1-1-1zm0 17c-.552 0-1 .448-1 1-.552 0-1 .448-1 1s.448 1 1 1h1c.552 0 1-.448 1-1v-1c0-.552-.448-1-1-1zM2 18c0-.552-.448-1-1-1s-1 .448-1 1v1c0 .552.448 1 1 1h1c.552 0 1-.448 1-1s-.448-1-1-1zm-1-3c.552 0 1-.448 1-1v-2c0-.552-.448-1-1-1s-1 .448-1 1v2c0 .552.448 1 1 1zm0-6c.552 0 1-.448 1-1V6c0-.552-.448-1-1-1s-1 .448-1 1v2c0 .552.448 1 1 1zm18 2c-.552 0-1 .448-1 1v2c0 .552.448 1 1 1s1-.448 1-1v-2c0-.552-.448-1-1-1zm0-6c-.552 0-1 .448-1 1v2c0 .552.448 1 1 1s1-.448 1-1V6c0-.552-.448-1-1-1zm-5 4h-3V6c0-.552-.448-1-1-1s-1 .448-1 1v3H6c-.552 0-1 .448-1 1s.448 1 1 1h3v3c0 .552.448 1 1 1s1-.448 1-1v-3h3c.552 0 1-.448 1-1s-.448-1-1-1z"/></svg>