<svg xmlns="http://www.w3.org/2000/svg" viewBox="0 0 20 20"><path fill="#fff" d="M10,16 C6.691,16 4,13.309 4,10 C4,6.691 6.691,4 10,4 C13.309,4 16,6.691 16,10 C16,13.309 13.309,16 10,16"/><path fill="rgb(145,158,171)" d="M10,2 C5.589,2 2,5.589 2,10 C2,14.411 5.589,18 10,18 C14.411,18 18,14.411 18,10 C18,5.589 14.411,2 10,2 M10,16 C6.691,16 4,13.309 4,10 C4,6.691 6.691,4 10,4 C13.309,4 16,6.691 16,10 C16,13.309 13.309,16 10,16 M13,9 L11,9 L11,7 C11,6.448 10.553,6 10,6 C9.447,6 9,6.448 9,7 L9,9 L7,9 C6.447,9 6,9.448 6,10 C6,10.552 6.447,11 7,11 L9,11 L9,13 C9,13.552 9.447,14 10,14 C10.553,14 11,13.552 11,13 L11,11 L13,11 C13.553,11 14,10.552 14,10 C14,9.448 13.553,9 13,9"/></svg>