<svg xmlns="http://www.w3.org/2000/svg" viewBox="0 0 20 20"><path fill="#fff" d="M3 15c2-2 2-4 2-7 0-2.762 2.24-5 5-5s5 2.238 5 5c0 3 0 5 2 7H3z"/><path fill="rgb(145,158,171)" d="M16 8c0-2.967-2.167-5.432-5-5.91V1c0-.553-.448-1-1-1S9 .447 9 1v1.09C6.167 2.568 4 5.033 4 8c0 2.957 0 4.586-1.707 6.293-.286.286-.372.716-.217 1.09S2.596 16 3 16h4.183c-.114.313-.183.647-.183 1 0 1.654 1.345 3 3 3s3-1.346 3-3c0-.353-.07-.687-.184-1H17c.404 0 .77-.243.924-.617s.07-.804-.217-1.09C16 12.586 16 10.957 16 8zM5.01 14C6 12.208 6 10.285 6 8c0-2.206 1.794-4 4-4s4 1.794 4 4c0 2.285 0 4.208.99 6H5.01zM11 17c0 .552-.45 1-1 1s-1-.448-1-1 .448-1 1-1c.55 0 1 .448 1 1z"/></svg>