<svg xmlns="http://www.w3.org/2000/svg" viewBox="0 0 20 20"><path fill="#fff" d="M1 7h18v12H1V7z"/><path fill="rgb(145,158,171)" d="M19 2c.553 0 1 .447 1 1v16c0 .553-.447 1-1 1H1c-.553 0-1-.447-1-1V3c0-.553.447-1 1-1h3V1c0-.553.447-1 1-1s1 .447 1 1v1h8V1c0-.553.447-1 1-1s1 .447 1 1v1h3zM2 18h16V8H2v10zM2 6h16V4H2v2zm4 4c-.553 0-1 .447-1 1s.447 1 1 1c.553 0 1-.447 1-1s-.447-1-1-1zm0 4c-.553 0-1 .447-1 1s.447 1 1 1c.553 0 1-.447 1-1s-.447-1-1-1zm4 0c-.553 0-1 .447-1 1s.447 1 1 1c.553 0 1-.447 1-1s-.447-1-1-1zm0-4c-.553 0-1 .447-1 1s.447 1 1 1c.553 0 1-.447 1-1s-.447-1-1-1zm4 0c-.553 0-1 .447-1 1s.447 1 1 1c.553 0 1-.447 1-1s-.447-1-1-1z"/></svg>