<svg xmlns="http://www.w3.org/2000/svg" viewBox="0 0 20 20"><path fill="#fff" d="M3 11h14l2-6L3 3z"/><path fill="rgb(145,158,171)" d="M17 18c-.55 0-1-.45-1-1s.45-1 1-1 1 .45 1 1-.45 1-1 1zM4 17c0 .55-.45 1-1 1s-1-.45-1-1 .45-1 1-1 1 .45 1 1zM17.666 5.84L16.28 10H4V4.133L17.666 5.84zM17 14H4v-2h13c.43 0 .812-.275.95-.684l2-6c.093-.284.056-.596-.104-.85s-.425-.42-.722-.458L4 2.118V1c0-.552-.448-1-1-1H1C.448 0 0 .448 0 1s.448 1 1 1h1v12.184C.838 14.6 0 15.698 0 17c0 1.654 1.346 3 3 3s3-1.346 3-3c0-.353-.072-.686-.184-1h8.368c-.112.314-.184.647-.184 1 0 1.654 1.346 3 3 3s3-1.346 3-3-1.346-3-3-3z"/></svg>