<svg xmlns="http://www.w3.org/2000/svg" viewBox="0 0 20 20"><path fill="#fff" d="M7 15h12v4H7v-4z"/><path fill="rgb(196,205,213)" d="M19 20c.553 0 1-.447 1-1V6c0-.297-.132-.578-.36-.77l-6-5c-.37-.307-.91-.307-1.28 0L10 2.198 7.64.23c-.37-.307-.91-.307-1.28 0l-6 5C.13 5.423 0 5.704 0 6v13c0 .553.447 1 1 1h18zM8 18v-2h10v2H8zm-6 0v-2h4v2H2zM7 2.302L8.438 3.5l-2.08 1.73C6.133 5.423 6 5.704 6 6v8H2V6.47L7 2.3zm6 0l5 4.167V14H8V6.47L13 2.3zM13 7c.553 0 1-.447 1-1s-.447-1-1-1c-.553 0-1 .447-1 1s.447 1 1 1z"/></svg>