<svg xmlns="http://www.w3.org/2000/svg" viewBox="0 0 20.03 20"><title>text</title><path d="M1.65,18.33A2.22,2.22,0,0,0,4,18.85L13,14,6,7,1.13,16a2.22,2.22,0,0,0,.52,2.33" fill="#fff"/><path d="M6.71,6.29a1,1,0,0,0-1.59.23l-4.87,9-.06.13a3.22,3.22,0,0,0,4.13,4.13l.13-.06,9-4.85a1,1,0,0,0,.23-1.59ZM3.58,17.93A1.22,1.22,0,0,1,2.05,16.4L6.24,8.66l5.1,5.1ZM15,4a1,1,0,0,1,1,1,1,1,0,0,0,2,0,1,1,0,0,1,1-1,1,1,0,0,0,0-2,1,1,0,0,1-1-1,1,1,0,0,0-2,0,1,1,0,0,1-1,1,1,1,0,0,0,0,2M1,4A1,1,0,0,1,2,5,1,1,0,0,0,4,5,1,1,0,0,1,5,4,1,1,0,0,0,5,2,1,1,0,0,1,4,1,1,1,0,0,0,2,1,1,1,0,0,1,1,2,1,1,0,0,0,1,4M19,16a1,1,0,0,1-1-1,1,1,0,0,0-2,0,1,1,0,0,1-1,1,1,1,0,0,0,0,2,1,1,0,0,1,1,1,1,1,0,0,0,2,0,1,1,0,0,1,1-1,1,1,0,0,0,0-2M12,9a1,1,0,0,0,.71-.29l1-1a1,1,0,1,0-1.41-1.41l-1,1A1,1,0,0,0,12,9m6.68.05-3,1A1,1,0,0,0,16.25,12l.06,0,3-1A1,1,0,0,0,18.75,9l-.06,0m-10-4.1a1,1,0,0,0,1.27-.63l1-3A1,1,0,0,0,9.05.68l-1,3a1,1,0,0,0,.63,1.26" fill="#212b36"/></svg>