<svg xmlns="http://www.w3.org/2000/svg" viewBox="0 0 20 20"><path fill="#fff" d="M19 10c0 4.97-4.03 9-9 9s-9-4.03-9-9 4.03-9 9-9 9 4.03 9 9z"/><path fill="rgb(145,158,171)" d="M10 0C4.486 0 0 4.486 0 10s4.486 10 10 10 10-4.486 10-10S15.514 0 10 0zm0 18c-4.41 0-8-3.59-8-8s3.59-8 8-8 8 3.59 8 8-3.59 8-8 8zM9.977 7c.026 0 .65.04 1.316.707.39.39 1.024.39 1.414 0s.39-1.024 0-1.415C12.104 5.69 11.493 5.372 11 5.2V5c0-.553-.447-1-1-1-.552 0-1 .447-1 1v.184C7.84 5.598 7 6.698 7 8c0 2.28 1.727 2.712 2.758 2.97C10.873 11.25 11 11.354 11 12c0 .55-.448 1-.976 1-.026 0-.65-.04-1.317-.708-.39-.39-1.023-.39-1.414 0s-.39 1.024 0 1.415c.604.603 1.215.92 1.707 1.092v.2c0 .55.448 1 1 1 .553 0 1-.45 1-1v-.186C12.162 14.4 13 13.3 13 12c0-2.28-1.726-2.713-2.757-2.97C9.128 8.75 9 8.644 9 8c0-.552.45-1 .977-1z"/></svg>