<svg xmlns="http://www.w3.org/2000/svg" viewBox="0 0 20 20"><path fill="#fff" d="M8.442 18.355l-.7-.7c-.413-.413-.974-.646-1.558-.646h-.99c-1.217 0-2.203-.987-2.203-2.203v-.99c0-.585-.232-1.146-.645-1.56l-.7-.7c-.86-.86-.86-2.254 0-3.114l.7-.7c.413-.413.646-.974.646-1.558v-.99c0-1.217.987-2.203 2.203-2.203h.99c.585 0 1.146-.233 1.56-.646l.7-.7c.86-.86 2.254-.86 3.114 0l.7.7c.414.413.974.646 1.558.646h.99c1.217 0 2.203.986 2.203 2.202v.99c0 .585.233 1.146.646 1.56l.7.7c.86.86.86 2.254 0 3.114l-.7.7c-.413.413-.646.974-.646 1.558v.99c0 1.217-.986 2.203-2.202 2.203h-.99c-.585 0-1.145.232-1.56.645l-.7.7c-.86.86-2.254.86-3.114 0z"/><path fill="rgb(196,205,213)" d="M19.06 7.734l-.7-.7c-.224-.224-.353-.535-.353-.85V5.19c0-1.766-1.437-3.202-3.203-3.202h-.99c-.32 0-.623-.125-.85-.353l-.7-.7c-1.25-1.25-3.282-1.248-4.53 0l-.7.7c-.23.228-.53.353-.852.353h-.99c-1.766 0-3.203 1.436-3.203 3.202v.99c0 .317-.13.628-.353.852l-.7.7c-1.25 1.25-1.25 3.28 0 4.53l.7.7c.223.223.352.533.352.85v.99c0 1.767 1.436 3.203 3.202 3.203h.99c.32 0 .623.125.85.353l.7.7c.626.625 1.446.936 2.266.936s1.64-.312 2.265-.936l.7-.7c.228-.228.53-.353.85-.353h.99c1.767 0 3.204-1.436 3.204-3.202v-.99c0-.318.13-.628.352-.852l.7-.7c1.248-1.25 1.248-3.28 0-4.53zM12.29 6.29l-6 6c-.392.39-.392 1.022 0 1.413.194.195.45.293.706.293s.512-.098.707-.293l6-6c.39-.39.39-1.023 0-1.414s-1.023-.392-1.414 0zM7.495 8.995c.828 0 1.5-.672 1.5-1.5s-.672-1.5-1.5-1.5-1.5.672-1.5 1.5.672 1.5 1.5 1.5zm5 2c-.828 0-1.5.672-1.5 1.5s.672 1.5 1.5 1.5 1.5-.672 1.5-1.5-.672-1.5-1.5-1.5zm5.15-.147l-.7.7c-.606.604-.94 1.408-.94 2.264v.99c0 .664-.538 1.203-1.202 1.203h-.99c-.855 0-1.66.333-2.265.94l-.7.7c-.47.468-1.234.468-1.703 0l-.7-.7c-.605-.607-1.41-.94-2.265-.94h-.99c-.664 0-1.203-.54-1.203-1.202v-.99c0-.857-.334-1.66-.94-2.266l-.7-.7c-.47-.47-.47-1.233 0-1.702l.7-.7c.606-.605.94-1.41.94-2.265v-.99c0-.664.538-1.203 1.202-1.203h.99c.856 0 1.66-.333 2.265-.94l.7-.7c.47-.468 1.233-.468 1.702 0l.7.7c.604.607 1.41.94 2.264.94h.99c.664 0 1.203.54 1.203 1.202v.99c0 .856.333 1.66.938 2.266l.7.7c.47.47.47 1.232 0 1.7z"/></svg>