<svg xmlns="http://www.w3.org/2000/svg" viewBox="0 0 19.93 19.89"><path fill="rgb(145,158,171)" d="M2.37,12.22a1,1,0,0,0-.23.37v0l-2,6a1,1,0,0,0,1,1.32,1,1,0,0,0,.32-.05l6-2,0,0a1,1,0,0,0,.37-.23L18.88,6.54a3.83,3.83,0,0,0,0-5.41,3.92,3.92,0,0,0-5.41,0Zm15.1-7.1L17,5.59,14.41,3l.46-.46a1.87,1.87,0,0,1,2.59,0,1.82,1.82,0,0,1,0,2.58Zm-14,9.65,1.71,1.71-2.57.86.86-2.57Z" transform="translate(-0.07 -0.04)"/><polygon points="10.29 12.18 7 15.47 4.41 12.89 12.93 4.38 15.51 6.96 10.29 12.18" fill="#fff"/></svg>