<svg xmlns="http://www.w3.org/2000/svg" viewBox="0 0 20 20"><path fill="#fff" d="M10 13c-1.657 0-3-1.343-3-3s1.343-3 3-3 3 1.343 3 3-1.343 3-3 3zm7-3c0-.53-.064-1.044-.176-1.54L19 7.23l-2.047-3.464-2.106 1.188c-.794-.763-1.764-1.34-2.847-1.662V1H8v2.294c-1.083.322-2.053.9-2.847 1.662L3.047 3.768 1 7.232 3.176 8.46C3.064 8.955 3 9.47 3 10s.064 1.044.176 1.54L1 12.77l2.047 3.464 2.106-1.188c.794.762 1.764 1.34 2.847 1.662V19h4v-2.294c1.083-.322 2.053-.9 2.847-1.662l2.106 1.188L19 12.768l-2.176-1.227c.112-.49.176-1.01.176-1.54z"/><path fill="rgb(196,205,213)" d="M19.492 11.897l-1.56-.88c.046-.342.068-.682.068-1.017s-.022-.675-.067-1.018l1.56-.88c.233-.132.404-.352.473-.61.07-.26.032-.538-.104-.77L17.815 3.26c-.277-.47-.875-.63-1.353-.363l-1.49.84c-.6-.475-1.267-.864-1.972-1.15V1c0-.552-.447-1-1-1H8c-.552 0-1 .448-1 1v1.586c-.705.287-1.37.676-1.97 1.152l-1.492-.84c-.475-.268-1.075-.107-1.352.36L.14 6.724c-.138.23-.175.508-.105.768s.24.48.474.613l1.55.88C2.02 9.325 2 9.665 2 10s.023.675.068 1.017l-1.56.88c-.233.132-.404.353-.473.612-.07.26-.033.53.104.76l2.04 3.46c.27.47.87.63 1.35.36l1.49-.844c.6.48 1.26.87 1.97 1.154V19c0 .552.443 1 1 1h4c.55 0 1-.448 1-1v-1.587c.7-.286 1.37-.675 1.97-1.152l1.49.85c.48.27 1.073.11 1.35-.36l2.047-3.46c.136-.23.174-.51.104-.77s-.24-.48-.473-.61zm-3.643-3.22c.1.45.15.894.15 1.323s-.05.873-.15 1.322c-.1.43.1.873.48 1.09l1.28.725-1.03 1.742-1.257-.71c-.383-.22-.866-.16-1.183.15-.69.66-1.534 1.15-2.44 1.42-.423.12-.714.51-.714.96V18H9v-1.294c0-.443-.29-.833-.714-.96-.906-.268-1.75-.76-2.44-1.424-.317-.306-.8-.366-1.184-.15l-1.252.707-1.03-1.75 1.287-.73c.385-.22.58-.66.485-1.09C4.052 10.87 4 10.43 4 10c0-.43.05-.874.152-1.322.096-.43-.1-.873-.485-1.09L2.38 6.862 3.41 5.12l1.252.707c.384.217.867.157 1.184-.15.69-.663 1.534-1.155 2.44-1.425.423-.126.714-.516.714-.958V2h2v1.294c0 .442.29.832.715.958.905.27 1.75.762 2.44 1.426.317.306.8.365 1.183.15l1.253-.708 1.03 1.742-1.28.726c-.38.217-.58.66-.48 1.09zM10 6c-2.206 0-4 1.794-4 4s1.794 4 4 4 4-1.794 4-4-1.794-4-4-4zm0 6c-1.103 0-2-.897-2-2s.897-2 2-2 2 .897 2 2-.897 2-2 2z"/></svg>