<svg xmlns="http://www.w3.org/2000/svg" viewBox="0 0 20 20"><path fill="#fff" d="M1 6h18v4H1V6z"/><path fill="rgb(145,158,171)" d="M11 9V7h7v2h-7zm0 9v-7h5v7h-5zm-7 0v-7h5v7H4zM2 9V7h7v2H2zm2.75-5.5c0-.827.673-1.5 1.5-1.5 1.562 0 2.41 1.42 2.662 3H6.25c-.827 0-1.5-.673-1.5-1.5zM13 3c.552 0 1 .45 1 1s-.448 1-1 1h-1.887c.207-.964.738-2 1.887-2zm6 2h-3.185c.113-.314.185-.647.185-1 0-1.654-1.346-3-3-3-1.243 0-2.202.567-2.87 1.425C9.346 1.005 8.046 0 6.25 0c-1.93 0-3.5 1.57-3.5 3.5 0 .54.133 1.043.352 1.5H1c-.553 0-1 .448-1 1v4c0 .552.447 1 1 1h1v8c0 .552.447 1 1 1h14c.553 0 1-.448 1-1v-8h1c.553 0 1-.448 1-1V6c0-.552-.447-1-1-1z"/></svg>