<svg xmlns="http://www.w3.org/2000/svg" viewBox="0 0 24 24"><path fill="rgb(196,205,213)" d="M12 0C5.4 0 0 5.4 0 12s5.4 12 12 12 12-5.4 12-12S18.6 0 12 0zm0 21.15c-5.1 0-9.15-4.05-9.15-9.15 0-1.35.3-2.7.9-3.9v.45c0 .3.45.75.45 1.05 0 .45.3.75.6 1.05.45.15.9.3 1.2.6.3.3.6.45 1.05.3.3.3.15.6 0 .9-.3.3-.45.6-.45.75-.15.45-.15.9.3 1.2.3.15.45.45.45.75s.3.6.45.75c.6.3.6.9.75 1.5.15 1.2 1.05 3 1.35 2.4.3-.45.9-1.35 1.2-1.65.15-.15.3-.3.3-.45.15-.3.3-.6.6-.75.15-.15.3-.3.3-.45 0-.6.3-1.2.6-1.65.6-.75.3-1.2-.6-1.5-.45-.15-1.05-.45-1.65-.15v-.3c.15-.75 0-.9-.75-1.2-.3-.3-.6-.45-.9-.6-.3-.15-.75 0-1.2-.15-.45.15-.3-.6-.75-.75-.9-.9.45-1.2 1.05-.9.15.15.75-.75 1.95-1.5.3 0 .15-1.5.45-1.5-2.55-1.5-3-2.1-3-2.1h-.3c1.35-.9 3-1.35 4.8-1.35h.9l-.15.15s-.75.45.15 1.5c.3.3 1.05 1.2.9 1.35 0 .3 2.1-.15 2.4-.15.6 0 .45.9 0 1.05 0 .15-2.7.45-2.85.45-.45.6-.45.45-.3 1.05 0 .3-.15.45-.15.9.3.3.6.75.9 1.2.45.45.75 1.2 1.2 1.05.15 0 .3-.15.6-.3.15.15.45.6.75.75-.15.45 0 .75.3 1.2.15.15 0 1.2-.15 1.35-.15.3 0 .9.3 1.5s1.05.6 1.35 0l1.05-2.85c.3-.6.75-1.05 1.35-1.35l.45-.15V12c.15 5.1-3.9 9.15-9 9.15z"/></svg>