<svg xmlns="http://www.w3.org/2000/svg" viewBox="0 0 20 20"><path fill="#fff" d="M14 9l-5 5-3-2-5 3v4h18v-6z"/><path fill="rgb(145,158,171)" d="M19 0H1C.448 0 0 .448 0 1v18c0 .552.448 1 1 1h18c.552 0 1-.448 1-1V1c0-.552-.448-1-1-1zM8 6c.55 0 1 .45 1 1s-.45 1-1 1-1-.45-1-1 .45-1 1-1zm0 4c1.654 0 3-1.346 3-3S9.654 4 8 4 5 5.346 5 7s1.346 3 3 3zm-6 8v-2.434l3.972-2.383 2.473 1.65c.398.264.925.21 1.262-.126l4.367-4.367L18 13.48V18H2zM18 2v8.92l-3.375-2.7c-.398-.32-.973-.287-1.332.073l-4.42 4.42-2.318-1.545c-.322-.214-.74-.225-1.07-.025L2 13.233V2h16z"/></svg>