<svg xmlns="http://www.w3.org/2000/svg" viewBox="0 0 20 20"><path fill="rgb(145,158,171)" d="M13.1 4c.1.3 0 .6-.2.7l-3.7 1.7c-.3.1-.6 0-.7-.2l-1.7-3.7c-.1-.3 0-.6.2-.7l3.7-1.8c.3-.1.6 0 .7.2l1.7 3.8zm4.5 9.5l-3.4 1.5.4.6c.1.2.2.5.3.8l3.3-1.6c.4-.2.6-.6.4-1-.2-.4-.6-.5-1-.3zm-13.7-10.4l5.2 11.3c.2-.2.4-.3.7-.4.2-.1.5-.2.7-.2l-5.3-11.6c0-.2-.2-.3-.3-.4l-2.8-1.4c-.4-.2-.8 0-1 .3-.2.4 0 .8.3 1l2.5 1.4zm10 12.9c-.7-1.4-2.3-2-3.8-1.4s-2 2.3-1.4 3.8 2.3 2 3.8 1.4 2.1-2.4 1.4-3.8zm-1.4.6c.3.6 0 1.4-.6 1.7s-1.4 0-1.7-.6c-.3-.6 0-1.4.6-1.7.7-.3 1.4 0 1.7.6zm3.1-12l-6 2.8c-.2.1-.3.4-.2.6l2.6 5.6c.4.1.8.2 1.2.4l5.6-2.6c.3-.1.4-.4.2-.7l-2.8-6c-.1-.1-.4-.2-.6-.1z"/></svg>