<svg xmlns="http://www.w3.org/2000/svg" viewBox="0 0 20 20"><path fill="rgb(196,205,213)" d="M19 9c.552 0 1 .447 1 1s-.448 1-1 1h-4.586l1.293 1.293c.39.39.39 1.023 0 1.414-.195.195-.45.293-.707.293s-.512-.098-.707-.293l-3-3c-.39-.39-.39-1.023 0-1.414l3-3c.39-.39 1.023-.39 1.414 0s.39 1.023 0 1.414L14.414 9H19zm-10.293.293c.39.39.39 1.023 0 1.414l-3 3c-.195.195-.45.293-.707.293s-.512-.098-.707-.293c-.39-.39-.39-1.023 0-1.414L5.586 11H1c-.552 0-1-.447-1-1s.448-1 1-1h4.586L4.293 7.707c-.39-.39-.39-1.023 0-1.414s1.023-.39 1.414 0l3 3zM7 5c-.552 0-1-.447-1-1V1c0-.553.448-1 1-1h6c.552 0 1 .447 1 1v2c0 .553-.448 1-1 1s-1-.447-1-1V2H8v2c0 .553-.448 1-1 1zm6 10c.552 0 1 .447 1 1v3c0 .553-.448 1-1 1H7c-.552 0-1-.447-1-1v-3c0-.553.448-1 1-1s1 .447 1 1v2h4v-2c0-.553.448-1 1-1z"/></svg>