<svg xmlns="http://www.w3.org/2000/svg" viewBox="0 0 20 20"><path fill="#fff" d="M11.2 11.2C10.535 11.863 7 13 7 13s1.137-3.537 1.8-4.2C9.463 8.14 13 7 13 7s-1.138 3.538-1.8 4.2z"/><path fill="rgb(145,158,171)" d="M10 0C4.486 0 0 4.487 0 10s4.486 10 10 10 10-4.486 10-10c0-5.513-4.486-10-10-10zm1 17.93V17c0-.552-.447-1-1-1s-1 .448-1 1v.93c-3.61-.45-6.478-3.317-6.93-6.93H3c.553 0 1-.447 1-1 0-.552-.447-1-1-1h-.93C2.52 5.39 5.39 2.523 9 2.07V3c0 .553.447 1 1 1s1-.447 1-1v-.93c3.61.453 6.478 3.32 6.93 6.93H17c-.553 0-1 .448-1 1 0 .553.447 1 1 1h.93c-.452 3.612-3.32 6.478-6.93 6.93zm-.293-7.223c-.258.248-1.355.73-2.617 1.203.473-1.263.956-2.36 1.203-2.616.257-.248 1.354-.73 2.617-1.204-.474 1.262-.955 2.36-1.203 2.617zm2.522-5.194c-1.035.332-4.47 1.482-5.35 2.366s-2.037 4.315-2.37 5.35c-.114.354-.02.746.246 1.01.19.19.446.293.707.293.102 0 .206-.015.305-.048 1.032-.332 4.466-1.482 5.35-2.366s2.034-4.318 2.366-5.35c.115-.357.02-.75-.245-1.013-.264-.265-.66-.36-1.013-.245z"/></svg>