<svg xmlns="http://www.w3.org/2000/svg" viewBox="0 0 20 20"><path fill="rgb(145,158,171)" d="M17,2 C17.553,2 18,2.448 18,3 L18,8 C18,8.552 17.553,9 17,9 C16.447,9 16,8.552 16,8 L16,5.414 L8.707,12.707 C8.512,12.902 8.256,13 8,13 C7.744,13 7.488,12.902 7.293,12.707 C6.902,12.316 6.902,11.684 7.293,11.293 L14.586,4 L12,4 C11.447,4 11,3.552 11,3 C11,2.448 11.447,2 12,2 L17,2 Z M13,11 C13.553,11 14,11.448 14,12 L14,17 C14,17.552 13.553,18 13,18 L3,18 C2.447,18 2,17.552 2,17 L2,7 C2,6.448 2.447,6 3,6 L8,6 C8.553,6 9,6.448 9,7 C9,7.552 8.553,8 8,8 L4,8 L4,16 L12,16 L12,12 C12,11.448 12.447,11 13,11 Z"/></svg>