<svg xmlns="http://www.w3.org/2000/svg" viewBox="0 0 20 20"><path fill="rgb(196,205,213)" d="M5.243 20c-1.343 0-2.685-.512-3.707-1.533C.546 17.477 0 16.16 0 14.76c0-1.402.546-2.72 1.536-3.71l9.515-9.517c2.05-2.044 5.375-2.043 7.418 0C19.458 2.523 20 3.84 20 5.24c0 1.402-.545 2.72-1.535 3.71l-4.258 4.258c-1.216 1.217-3.197 1.217-4.414 0-.59-.59-.914-1.373-.914-2.208s.32-1.618.91-2.208l4.5-4.5c.39-.392 1.024-.392 1.414 0s.39 1.022 0 1.413l-4.5 4.5c-.212.213-.328.494-.328.794s.115.58.327.79c.438.434 1.15.434 1.586 0l4.26-4.26c.61-.61.95-1.427.95-2.294s-.34-1.682-.95-2.295c-1.266-1.262-3.32-1.262-4.587 0L2.95 12.46c-.613.613-.95 1.428-.95 2.295s.337 1.68.95 2.294c1.264 1.264 3.32 1.264 4.585 0l1.757-1.757c.39-.39 1.024-.39 1.414 0s.39 1.023 0 1.414L8.95 18.465c-1.022 1.02-2.365 1.532-3.707 1.533z"/></svg>