<svg xmlns="http://www.w3.org/2000/svg" viewBox="0 0 20 20"><path fill="#fff" d="M5 1h14v4H5V1z"/><path fill="rgb(196,205,213)" d="M17.815 10C17.4 8.84 16.3 8 15 8H6V6h12v4h-.185zM15 12h-4c-.43 0-.813.275-.95.684l-1.74 5.222-6.31-.79V6.62l2-1V9c0 .553.447 1 1 1h10c.55 0 1 .448 1 1s-.45 1-1 1zM6 4V2h12v2H6zm13-4H5c-.553 0-1 .447-1 1v2.382L.552 5.105C.212 5.275 0 5.62 0 6v12c0 .504.376.93.876.992l8 1c.042.005.083.008.125.008.426 0 .81-.27.95-.684L11.72 14H15c1.3 0 2.4-.84 2.815-2H19c.552 0 1-.447 1-1V1c0-.553-.448-1-1-1z"/></svg>