<svg xmlns="http://www.w3.org/2000/svg" viewBox="0 0 20 20"><path fill="#fff" d="M11 13l6-6-4-4-6 6z"/><path fill="rgb(196,205,213)" d="M18.878 1.122c-1.445-1.446-3.967-1.446-5.414 0L13 1.586 11.707.293C11.52.106 11.265 0 11 0H1C.447 0 0 .448 0 1v18c0 .553.447 1 1 1h14c.552 0 1-.447 1-1V9.414l2.878-2.878C19.6 5.813 20 4.85 20 3.83c0-1.024-.4-1.985-1.122-2.708zm-1.414 4L17 5.586 14.414 3l.464-.464c.69-.69 1.895-.69 2.586 0 .346.346.536.805.536 1.293s-.19.945-.536 1.29zM14 18H2V2h8.586l1 1-5.293 5.293c-.107.107-.18.233-.227.367-.003.01-.012.015-.015.024l-2 6c-.12.36-.024.756.244 1.023.19.19.446.293.707.293.107 0 .213-.016.317-.05l6-2c.01-.004.015-.013.024-.016.135-.048.26-.12.368-.227L14 11.414V18zm-6.563-7.15l1.712 1.713-2.57.856.856-2.57zm6.856-2.557L11 11.586 8.414 9 13 4.414 15.586 7l-1.293 1.293z"/></svg>