<svg xmlns="http://www.w3.org/2000/svg" viewBox="0 0 20 20"><path fill="#fff" d="M5 1h10v4H5V1zm0 12h10v6H5v-6z"/><path fill="rgb(196,205,213)" d="M19 4h-3V1c0-.553-.448-1-1-1H5c-.552 0-1 .447-1 1v3H1c-.552 0-1 .447-1 1v10c0 .553.448 1 1 1h3v3c0 .553.448 1 1 1h10c.552 0 1-.447 1-1v-3h3c.552 0 1-.447 1-1V5c0-.553-.448-1-1-1zm-5 5c0-.553.448-1 1-1s1 .447 1 1c0 .553-.448 1-1 1s-1-.447-1-1zm4 5h-2v-1c0-.553-.448-1-1-1H5c-.552 0-1 .447-1 1v1H2V6h16v8zM6 18v-4h8v4H6zM6 4V2h8v2H6zm1 4H5c-.552 0-1 .447-1 1s.448 1 1 1h2c.552 0 1-.447 1-1s-.448-1-1-1z"/></svg>