<svg xmlns="http://www.w3.org/2000/svg" viewBox="0 0 32 32"><path fill="rgb(196,205,213)" d="M27.2 17.6c.885 0 1.6.717 1.6 1.6 0 2.646-2.154 4.8-4.8 4.8H8.662l2.07 2.07c.625.625.625 1.636 0 2.26-.313.313-.723.47-1.132.47s-.82-.157-1.13-.47l-4.8-4.8c-.627-.625-.627-1.636 0-2.26l4.8-4.8c.625-.627 1.636-.627 2.26 0s.627 1.636 0 2.26L8.663 20.8H24c.883 0 1.6-.718 1.6-1.6 0-.883.715-1.6 1.6-1.6zM4.8 14.4c-.885 0-1.6-.717-1.6-1.6C3.2 10.154 5.354 8 8 8h15.338l-2.07-2.07c-.625-.625-.625-1.636 0-2.26s1.638-.627 2.263 0l4.8 4.8c.63.625.63 1.636 0 2.26l-4.8 4.8c-.31.313-.72.47-1.13.47s-.82-.157-1.13-.47c-.624-.625-.624-1.636 0-2.26l2.07-2.07H8c-.883 0-1.6.718-1.6 1.6 0 .883-.715 1.6-1.6 1.6z"/></svg>