<svg xmlns="http://www.w3.org/2000/svg" viewBox="0 0 20 20"><path fill="rgb(196,205,213)" d="M16.153 18.002h-5.96L6 16.325V8.002h1c.38 0 .725-.214.895-.553l2.712-5.425.393.015c.55 0 1 .45 1 1v2.962h-1c-.552 0-1 .448-1 1s.448 1 1 1h6.82l-1.667 10zM2 16.002v-8h2v8H2zm17.763-9.646c-.19-.225-.47-.354-.763-.354h-5V3.04c0-1.654-1.345-3-2.96-3h-.002l-1-.038c-.39-.025-.757.202-.932.553L6.382 6.002H1c-.552 0-1 .448-1 1v10c0 .552.448 1 1 1h3.807l4.822 1.93c.117.046.243.07.37.07h7c.49 0 .906-.354.986-.835l2-12c.05-.29-.033-.587-.223-.81z"/></svg>