<svg xmlns="http://www.w3.org/2000/svg" viewBox="0 0 20 20"><path fill="#fff" d="M11 1l8 8v8c0 1.104-.896 2-2 2s-2-.896-2-2v-6c0 1.104-.896 2-2 2s-2-.896-2-2V1z"/><path fill="rgb(196,205,213)" d="M17.98 17c0 .55-.45 1-1 1s-1-.45-1-1v-6c0-.552-.448-1-1-1s-1 .448-1 1c0 .55-.45 1-1 1s-1-.45-1-1V3.414l6 6V17zm-9.587-2.07c-1.243 0-2.413.483-3.293 1.363l-1.414 1.414c-.208.21-.505.317-.788.29-.298-.024-.56-.175-.74-.424-.274-.38-.19-.976.19-1.356l1.338-1.34c.94-.94 1.384-2.187 1.35-3.423l3.483 3.483c-.043 0-.084-.008-.127-.008zm3.094.148L4.902 8.492 9.98 3.414V11c0 1.525 1.147 2.774 2.623 2.962l-1.116 1.116zm8.2-6.785l-8-8c-.19-.19-.447-.283-.707-.283V0c-.014 0-.027.007-.04.008-.106.004-.21.023-.31.06-.01.004-.02.003-.03.007h-.003c-.112.048-.208.118-.294.197-.01.01-.02.012-.03.02l-8 8c-.39.392-.39 1.024 0 1.415 1.035 1.036 1.035 2.722 0 3.757l-1.34 1.34c-1.07 1.07-1.242 2.764-.397 3.938.52.722 1.323 1.177 2.202 1.248.08.007.162.01.243.01.794 0 1.556-.313 2.12-.88l1.415-1.413c1.004-1.005 2.755-1.004 3.758 0 .187.188.44.293.707.293s.52-.105.707-.293l2.293-2.293V17c0 1.654 1.346 3 3 3s3-1.346 3-3V9c0-.265-.105-.52-.293-.707z"/></svg>