<svg xmlns="http://www.w3.org/2000/svg" viewBox="0 0 20 20"><path fill="#fff" d="M4 7h12v12H4V7z"/><path fill="rgb(196,205,213)" d="M17 2c.552 0 1 .447 1 1v4c0 .553-.448 1-1 1v11c0 .553-.448 1-1 1H4c-.552 0-1-.447-1-1V8c-.552 0-1-.447-1-1V3c0-.553.448-1 1-1h3.382L7.105.553C7.275.213 7.62 0 8 0h4c.38 0 .725.214.895.553L13.618 2H17zM8 16c.552 0 1-.447 1-1v-4c0-.553-.448-1-1-1s-1 .447-1 1v4c0 .553.448 1 1 1zm4 0c-.552 0-1-.447-1-1v-4c0-.553.448-1 1-1s1 .447 1 1v4c0 .553-.448 1-1 1zm-7 2h10V8H5v10zM4 4v2h12V4h-3c-.38 0-.725-.214-.895-.553L11.382 2H8.618l-.723 1.447C7.725 3.787 7.38 4 7 4H4z"/></svg>