<svg xmlns="http://www.w3.org/2000/svg" viewBox="0 0 20 20"><path fill="rgb(196,205,213)" d="M9.542 12c.758-1.977 1.61-4.146 2.267-5.81.664 1.83 1.427 3.912 2.137 5.81H9.542zm-3.49 3.684c-.3.9-.37 1.664-.263 2.316H3.59c.102-.17.203-.354.303-.553.9-1.8 4.79-12.608 5.81-15.447h.59l.487 1.354c-.89 2.236-3.88 9.778-4.73 12.33zM19 20c.552 0 1-.448 1-1 0-.52-.398-.948-.906-.996-.082-.028-.598-.248-1.2-1.45-.77-1.54-4.23-11.068-5.952-15.89C11.8.266 11.422 0 11 0H9c-.423 0-.8.266-.942.664-1.722 4.822-5.183 14.35-5.953 15.89-.6 1.202-1.117 1.422-1.2 1.45C.4 18.052 0 18.48 0 19c0 .552.448 1 1 1h7c.538 0 .958-.427.978-.964S8.568 18.04 8.03 18c-.006 0-.156-.012-.224-.115-.042-.063-.235-.437.143-1.57.188-.565.49-1.397.85-2.356.066.014.13.04.2.04h5.703c.2.526.392 1.02.566 1.46.088 1.688-.922 2.776-.98 2.837-.388.39-.386 1.02.003 1.41.195.195.45.293.707.293h4z"/></svg>