<svg xmlns="http://www.w3.org/2000/svg" viewBox="0 0 20 20"><path fill="rgb(145,158,171)" d="M16.707 6.293l3 3c.39.39.39 1.023 0 1.414l-3 3c-.195.195-.45.293-.707.293s-.512-.098-.707-.293c-.39-.39-.39-1.023 0-1.414L16.586 11H12c-.552 0-1-.447-1-1s.448-1 1-1h4.586l-1.293-1.293c-.39-.39-.39-1.023 0-1.414s1.023-.39 1.414 0zm-12 0c.39.39.39 1.023 0 1.414L3.414 9H8c.552 0 1 .447 1 1s-.448 1-1 1H3.414l1.293 1.293c.39.39.39 1.023 0 1.414-.195.195-.45.293-.707.293s-.512-.098-.707-.293l-3-3c-.39-.39-.39-1.023 0-1.414l3-3c.39-.39 1.023-.39 1.414 0zM19 0c.552 0 1 .447 1 1v2c0 .553-.448 1-1 1s-1-.447-1-1V2H2v2c0 .553-.448 1-1 1s-1-.447-1-1V1c0-.553.448-1 1-1h18zm0 15c.552 0 1 .447 1 1v3c0 .553-.448 1-1 1H1c-.552 0-1-.447-1-1v-3c0-.553.448-1 1-1s1 .447 1 1v2h16v-2c0-.553.448-1 1-1z"/></svg>